<?xml version="1.0" encoding="UTF-8"?>
<!-- Generated by Pixelmator Pro 3.6.17 -->
<svg width="24" height="24" viewBox="0 0 24 24" xmlns="http://www.w3.org/2000/svg">
    <path id="Trac" fill="#f5f5f5" stroke="none" d="M 3 13 L 21 13 C 21.552 13 22 12.552 22 12 C 22 11.448 21.552 11 21 11 L 3 11 C 2.448 11 2 11.448 2 12 C 2 12.552 2.448 13 3 13 Z M 3 7 L 21 7 C 21.552 7 22 6.552 22 6 C 22 5.448 21.552 5 21 5 L 3 5 C 2.448 5 2 5.448 2 6 C 2 6.552 2.448 7 3 7 Z M 3 19 L 21 19 C 21.552 19 22 18.552 22 18 C 22 17.448 21.552 17 21 17 L 3 17 C 2.448 17 2 17.448 2 18 C 2 18.552 2.448 19 3 19 Z"/>
</svg>
